<svg xmlns="http://www.w3.org/2000/svg" xmlns:xlink="http://www.w3.org/1999/xlink" width="83" height="109" viewBox="0 0 83 109">
  <defs>
    <clipPath id="clip-path">
      <rect x="9" y="60" width="83" height="109" fill="none"/>
    </clipPath>
    <clipPath id="clip-path-2">
      <rect width="92" height="174" fill="none"/>
    </clipPath>
    <filter id="_5" x="-9" y="-60" width="102" height="210" filterUnits="userSpaceOnUse">
      <feOffset input="SourceAlpha"/>
      <feGaussianBlur stdDeviation="3" result="blur"/>
      <feFlood flood-opacity="0.278"/>
      <feComposite operator="in" in2="blur"/>
      <feComposite in="SourceGraphic"/>
    </filter>
  </defs>
  <g id="Scroll_Group_3" data-name="Scroll Group 3" transform="translate(-9 -60)" clip-path="url(#clip-path)" style="isolation: isolate">
    <g id="Repeat_Grid_3" data-name="Repeat Grid 3" clip-path="url(#clip-path-2)">
      <g id="Group_6905" data-name="Group 6905" transform="translate(-5 -80)">
        <path id="Rectangle_2641" data-name="Rectangle 2641" d="M0,0H30a8,8,0,0,1,8,8V26a8,8,0,0,1-8,8H0a0,0,0,0,1,0,0V0A0,0,0,0,1,0,0Z" transform="translate(34 198)" fill="#fff"/>
        <g transform="matrix(1, 0, 0, 1, 14, 140)" filter="url(#_5)">
          <text id="_5-2" data-name="5" transform="translate(42 105)" fill="#f5645f" font-size="145" font-family="SegoeUI-Bold, Segoe UI" font-weight="700"><tspan x="-41.702" y="0">5</tspan></text>
        </g>
      </g>
    </g>
  </g>
</svg>
