<svg xmlns="http://www.w3.org/2000/svg" xmlns:xlink="http://www.w3.org/1999/xlink" width="88" height="116" viewBox="0 0 88 116">
  <defs>
    <clipPath id="clip-path">
      <rect x="9" y="55" width="88" height="116" fill="none"/>
    </clipPath>
    <filter id="_6" x="-9" y="-55" width="102" height="209" filterUnits="userSpaceOnUse">
      <feOffset input="SourceAlpha"/>
      <feGaussianBlur stdDeviation="3" result="blur"/>
      <feFlood flood-opacity="0.278"/>
      <feComposite operator="in" in2="blur"/>
      <feComposite in="SourceGraphic"/>
    </filter>
  </defs>
  <g id="Scroll_Group_4" data-name="Scroll Group 4" transform="translate(-9 -55)" clip-path="url(#clip-path)" style="isolation: isolate">
    <g id="Group_6906" data-name="Group 6906" transform="translate(-5 -207)">
      <path id="Rectangle_2638" data-name="Rectangle 2638" d="M0,0H36a8,8,0,0,1,8,8V25a8,8,0,0,1-8,8H0a0,0,0,0,1,0,0V0A0,0,0,0,1,0,0Z" transform="translate(40 284)" fill="#9ec649"/>
      <g transform="matrix(1, 0, 0, 1, 14, 262)" filter="url(#_6)">
        <text id="_6-2" data-name="6" transform="translate(42 109)" fill="#9ec649" font-size="144" font-family="SegoeUI-Bold, Segoe UI" font-weight="700"><tspan x="-41.414" y="0">6</tspan></text>
      </g>
    </g>
  </g>
</svg>
