<svg xmlns="http://www.w3.org/2000/svg" xmlns:xlink="http://www.w3.org/1999/xlink" width="84" height="116" viewBox="0 0 84 116">
  <defs>
    <clipPath id="clip-path">
      <rect x="9" y="58" width="84" height="116" fill="none"/>
    </clipPath>
    <filter id="_7" x="-9" y="-58" width="102" height="213" filterUnits="userSpaceOnUse">
      <feOffset input="SourceAlpha"/>
      <feGaussianBlur stdDeviation="3" result="blur"/>
      <feFlood flood-opacity="0.278"/>
      <feComposite operator="in" in2="blur"/>
      <feComposite in="SourceGraphic"/>
    </filter>
  </defs>
  <g id="Scroll_Group_5" data-name="Scroll Group 5" transform="translate(-9 -58)" clip-path="url(#clip-path)" style="isolation: isolate">
    <g id="Group_6907" data-name="Group 6907" transform="translate(-5 -331)">
      <path id="Rectangle_2642" data-name="Rectangle 2642" d="M0,0H8a8,8,0,0,1,8,8V38a8,8,0,0,1-8,8H0a0,0,0,0,1,0,0V0A0,0,0,0,1,0,0Z" transform="translate(55 402)" fill="#fff"/>
      <g transform="matrix(1, 0, 0, 1, 14, 389)" filter="url(#_7)">
        <text id="_7-2" data-name="7" transform="translate(42 109)" fill="#47bbba" font-size="146" font-family="SegoeUI-Bold, Segoe UI" font-weight="700"><tspan x="-41.989" y="0">7</tspan></text>
      </g>
    </g>
  </g>
</svg>
