<svg xmlns="http://www.w3.org/2000/svg" xmlns:xlink="http://www.w3.org/1999/xlink" width="81" height="113" viewBox="0 0 81 113">
  <defs>
    <clipPath id="clip-path">
      <rect x="9" y="60" width="81" height="113" fill="none"/>
    </clipPath>
    <filter id="_9" x="-9" y="-60" width="102" height="213" filterUnits="userSpaceOnUse">
      <feOffset input="SourceAlpha"/>
      <feGaussianBlur stdDeviation="3" result="blur"/>
      <feFlood flood-opacity="0.278"/>
      <feComposite operator="in" in2="blur"/>
      <feComposite in="SourceGraphic"/>
    </filter>
  </defs>
  <g id="Scroll_Group_7" data-name="Scroll Group 7" transform="translate(-9 -60)" clip-path="url(#clip-path)" style="isolation: isolate">
    <g id="Group_6909" data-name="Group 6909" transform="translate(-5 -587)">
      <path id="Rectangle_2645" data-name="Rectangle 2645" d="M0,0H8a8,8,0,0,1,8,8V38a8,8,0,0,1-8,8H0a0,0,0,0,1,0,0V0A0,0,0,0,1,0,0Z" transform="translate(55 658)" fill="#fff"/>
      <path id="Rectangle_2646" data-name="Rectangle 2646" d="M0,0H9a8,8,0,0,1,8,8V38a8,8,0,0,1-8,8H0a0,0,0,0,1,0,0V0A0,0,0,0,1,0,0Z" transform="translate(55 704)" fill="#fff"/>
      <g transform="matrix(1, 0, 0, 1, 14, 647)" filter="url(#_9)">
        <text id="_9-2" data-name="9" transform="translate(42 107)" fill="#9f60a2" font-size="146" font-family="SegoeUI-Bold, Segoe UI" font-weight="700"><tspan x="-41.989" y="0">9</tspan></text>
      </g>
    </g>
  </g>
</svg>
